<svg xmlns="http://www.w3.org/2000/svg" width="24" height="24" viewBox="0 0 24 24">
  <path id="circleElement" d="M891.25,2906.5a.75.75,0,1,1,.75-.75A.751.751,0,0,1,891.25,2906.5Zm-7.5,0a.75.75,0,1,1,.751-.75A.751.751,0,0,1,883.75,2906.5Zm-7.5,0a.75.75,0,1,1,.75-.75A.751.751,0,0,1,876.25,2906.5Zm-7.5,0a.75.75,0,1,1,.75-.75A.751.751,0,0,1,868.75,2906.5Zm22.5-7.5a.75.75,0,1,1,.75-.75A.751.751,0,0,1,891.25,2899Zm-7.5,0a.75.75,0,1,1,.751-.75A.751.751,0,0,1,883.75,2899Zm-7.5,0a.75.75,0,1,1,.75-.75A.751.751,0,0,1,876.25,2899Zm-7.5,0a.75.75,0,1,1,.75-.75A.751.751,0,0,1,868.75,2899Zm22.5-7.5a.75.75,0,1,1,.75-.75A.751.751,0,0,1,891.25,2891.5Zm-7.5,0a.75.75,0,1,1,.751-.75A.751.751,0,0,1,883.75,2891.5Zm-7.5,0a.75.75,0,1,1,.75-.75A.751.751,0,0,1,876.25,2891.5Zm-7.5,0a.75.75,0,1,1,.75-.75A.751.751,0,0,1,868.75,2891.5Zm22.5-7.5a.75.75,0,1,1,.75-.75A.751.751,0,0,1,891.25,2884Zm-7.5,0a.75.75,0,1,1,.751-.75A.751.751,0,0,1,883.75,2884Zm-7.5,0a.75.75,0,1,1,.75-.75A.751.751,0,0,1,876.25,2884Zm-7.5,0a.75.75,0,1,1,.75-.75A.751.751,0,0,1,868.75,2884Z" transform="translate(-868 -2882.5)" fill="#fff" opacity="0.8"/>
</svg>
