<svg xmlns="http://www.w3.org/2000/svg" width="960.5" height="579.824" viewBox="0 0 960.5 579.824">
  <path id="Subtraction_1" data-name="Subtraction 1" d="M692.5,578.824H-268l.049-.046c4.283-3.856,43.618-39.152,105.139-90.551,37.774-31.56,76.264-62.8,114.4-92.862C-.744,357.789,46.5,321.973,92,288.912,207.831,204.75,313.245,137.69,405.313,89.6c26.614-13.9,52.45-26.38,76.79-37.088C507.725,41.237,532.4,31.617,555.43,23.914c11.938-3.992,23.687-7.552,34.92-10.581,11.494-3.1,22.772-5.731,33.52-7.821,10.991-2.137,21.738-3.768,31.943-4.848A288.348,288.348,0,0,1,686-1c2.172,0,4.359.029,6.5.086V578.823Z" transform="translate(268 1)" fill="#6a8d92" opacity="0.2"/>
</svg>
