<svg xmlns="http://www.w3.org/2000/svg" width="14" height="9" viewBox="0 0 14 9">
  <path id="Vector" d="M3886,262.5a7.816,7.816,0,0,1-6.915-4.158.731.731,0,0,1,0-.684,7.829,7.829,0,0,1,13.831,0A.732.732,0,0,1,3893,258a.742.742,0,0,1-.085.343A7.815,7.815,0,0,1,3886,262.5Zm0-7.875a3.619,3.619,0,0,0-.683.065,3.527,3.527,0,0,0-1.792.923,3.328,3.328,0,0,0-.957,1.728,3.241,3.241,0,0,0,.2,1.95,3.4,3.4,0,0,0,1.289,1.514,3.618,3.618,0,0,0,3.284.313,3.505,3.505,0,0,0,1.136-.732,3.363,3.363,0,0,0,.758-1.1A3.231,3.231,0,0,0,3889.5,258a3.285,3.285,0,0,0-.589-1.875,3.472,3.472,0,0,0-1.571-1.244A3.6,3.6,0,0,0,3886,254.625Zm.006,5.615a2.389,2.389,0,0,1-1.3-.38,2.244,2.244,0,0,1-.883-1.08,2.154,2.154,0,0,1-.066-1.373,1.205,1.205,0,0,0,.691.218c.028,0,.057,0,.085,0a1.185,1.185,0,0,0,.735-.325,1.109,1.109,0,0,0,.337-.709,1.088,1.088,0,0,0-.223-.748,2.34,2.34,0,0,1,1.975.329,2.236,2.236,0,0,1,.85,1.1,2.149,2.149,0,0,1,.024,1.375,2.242,2.242,0,0,1-.811,1.13,2.373,2.373,0,0,1-1.344.462Z" transform="translate(-3879 -253.5)" fill="#bababa"/>
</svg>
