<svg xmlns="http://www.w3.org/2000/svg" width="24.5" height="21" viewBox="0 0 24.5 21">
  <path id="Vector" d="M24.16,21a6.917,6.917,0,0,1-3.773-1.172A9.974,9.974,0,0,1,15.653,21,8.983,8.983,0,0,1,7.5,16.411a11.386,11.386,0,0,0,1.348.089c5.629,0,10.209-4.037,10.209-9A7.807,7.807,0,0,0,19,6.557c3.341,1.161,5.5,3.887,5.5,6.943a6.684,6.684,0,0,1-1.616,4.313,10.507,10.507,0,0,0,1.523,2.554.408.408,0,0,1,.064.409A.337.337,0,0,1,24.16,21ZM8.847,15a10.034,10.034,0,0,1-4.734-1.172A6.928,6.928,0,0,1,.34,15a.334.334,0,0,1-.31-.225.4.4,0,0,1,.064-.408,10.632,10.632,0,0,0,1.523-2.555A6.7,6.7,0,0,1,0,7.5C0,3.364,3.969,0,8.847,0s8.848,3.364,8.848,7.5S13.726,15,8.847,15Z" fill="#493548"/>
</svg>
