<svg xmlns="http://www.w3.org/2000/svg" xmlns:xlink="http://www.w3.org/1999/xlink" width="267.83" height="266.546" viewBox="0 0 267.83 266.546">
  <defs>
    <linearGradient id="linear-gradient" x1="1.026" y1="0.194" x2="0.5" y2="1" gradientUnits="objectBoundingBox">
      <stop offset="0" stop-color="#a1e887"/>
      <stop offset="1" stop-color="#493548"/>
    </linearGradient>
  </defs>
  <path id="Subtraction_1" data-name="Subtraction 1" d="M120.542,719.533c-20.34,0-36.545-1.111-49.542-3.4V528.847c.807-.927,2.03-2.333,3.334-3.847A331.524,331.524,0,0,1,97.421,500.71,245.091,245.091,0,0,1,125.788,477.4c23.313-16.2,45.758-24.418,66.712-24.418a162.48,162.48,0,0,1,29.49,2.689,157.075,157.075,0,0,1,27.468,7.711,151.825,151.825,0,0,1,24.856,12.2,145.249,145.249,0,0,1,21.656,16.159,137.206,137.206,0,0,1,17.868,19.585,128.926,128.926,0,0,1,13.492,22.479,122.636,122.636,0,0,1,8.526,24.84,121.065,121.065,0,0,1-7.489,75.9,128.123,128.123,0,0,1-12.322,21.712,136.165,136.165,0,0,1-16.379,19.171,143.619,143.619,0,0,1-22.043,17.549,151,151,0,0,1-25.663,13.3,156.731,156.731,0,0,1-28.6,8.431,162.353,162.353,0,0,1-30.859,2.947c-8.2,0-18.381.39-29.16.8C150.173,718.961,135.254,719.533,120.542,719.533Z" transform="translate(-71 -452.987)" fill="url(#linear-gradient)"/>
</svg>
