<svg xmlns="http://www.w3.org/2000/svg" width="29" height="29" viewBox="0 0 29 29">
  <g id="Group_20" data-name="Group 20" transform="translate(-3318.5 -495.5)">
    <rect id="background" width="29" height="29" rx="6" transform="translate(3318.5 495.5)" fill="#5d9db1" opacity="0.149"/>
    <path id="Vector" d="M3336.914,514.6h-8.23a.675.675,0,0,1-.684-.663v-7.874a.674.674,0,0,1,.684-.662h8.23a.675.675,0,0,1,.686.662v7.874A.676.676,0,0,1,3336.914,514.6Zm-2.841-4.614c.739,0,.739.673.739,1.164v2.136h1.424v-2.407c0-1.087-.207-2.092-1.708-2.092a1.519,1.519,0,0,0-1.348.708h-.019v-.6h-1.365v4.39h1.423v-2.173C3333.218,510.556,3333.319,509.986,3334.073,509.986Zm-4.594-1.091h0v4.39h1.423l0-4.39Zm.712-2.181a.791.791,0,1,0,.824.79A.809.809,0,0,0,3330.19,506.714Z" fill="#5d9db1"/>
  </g>
</svg>
