<svg xmlns="http://www.w3.org/2000/svg" width="23" height="17.5" viewBox="0 0 23 17.5">
  <path id="Vector" d="M21.083,17.5H1.917A1.9,1.9,0,0,1,0,15.625V8.75H23v6.875A1.9,1.9,0,0,1,21.083,17.5Zm-12.937-5a.474.474,0,0,0-.479.469v1.563A.474.474,0,0,0,8.146,15h5.431a.475.475,0,0,0,.48-.468V12.969a.475.475,0,0,0-.48-.469Zm-5.111,0a.474.474,0,0,0-.479.469v1.563A.474.474,0,0,0,3.035,15H5.91a.474.474,0,0,0,.479-.468V12.969A.474.474,0,0,0,5.91,12.5ZM23,3.749H0V1.875A1.9,1.9,0,0,1,1.917,0H21.083A1.9,1.9,0,0,1,23,1.875V3.748Z" fill="#493548"/>
</svg>
