<svg xmlns="http://www.w3.org/2000/svg" width="30.5" height="21" viewBox="0 0 30.5 21">
  <path id="Vector" d="M22.875,21c-2.523,0-4.576-1.766-4.576-3.937H12.2C12.2,19.233,10.147,21,7.625,21S3.05,19.233,3.05,17.062H2.288A2.149,2.149,0,0,1,0,15.094V1.969A2.149,2.149,0,0,1,2.288,0h15.25a2.149,2.149,0,0,1,2.288,1.969V3.938h2.1a2.5,2.5,0,0,1,1.615.579l4.761,4.1A1.852,1.852,0,0,1,28.976,10v4.434h.762a.716.716,0,0,1,.762.656v1.312a.716.716,0,0,1-.762.656H27.45C27.45,19.233,25.4,21,22.875,21ZM22.87,15.09a2.15,2.15,0,0,0-2.29,1.97,2.15,2.15,0,0,0,2.29,1.97,2.151,2.151,0,0,0,2.291-1.97A2.151,2.151,0,0,0,22.87,15.09Zm-15.25,0a2.15,2.15,0,0,0-2.29,1.97,2.15,2.15,0,0,0,2.29,1.97,2.15,2.15,0,0,0,2.29-1.97A2.15,2.15,0,0,0,7.62,15.09Zm12.2-9.184V10.5h6.863V10l-4.761-4.1h-2.1Z" fill="#493548"/>
</svg>
