<svg xmlns="http://www.w3.org/2000/svg" width="20" height="20" viewBox="0 0 20 20">
  <path id="Vector" d="M10.007,20H10a10.017,10.017,0,0,1-6.275-2.214A.966.966,0,0,1,3.65,16.35L4.1,15.9a.97.97,0,0,1,.691-.287.949.949,0,0,1,.6.207A7.343,7.343,0,0,0,10,17.42,7.42,7.42,0,1,0,4.916,4.594L6.963,6.641a.645.645,0,0,1-.456,1.1H.644A.646.646,0,0,1,0,7.1V1.235A.642.642,0,0,1,.65.589.635.635,0,0,1,1.1.778L3.092,2.77A10,10,0,0,1,17.073,17.056,9.928,9.928,0,0,1,10.007,20Zm1.933-6.468a.96.96,0,0,1-.594-.2L8.709,11.276V5.807a.969.969,0,0,1,.967-.968h.645a.969.969,0,0,1,.967.968v4.208l1.642,1.276a.97.97,0,0,1,.17,1.358l-.4.509A.963.963,0,0,1,11.94,13.532Z" transform="translate(0 0)" fill="#493548"/>
</svg>
