<svg xmlns="http://www.w3.org/2000/svg" width="29" height="29" viewBox="0 0 29 29">
  <g id="Group_21" data-name="Group 21" transform="translate(-3354.5 -495.5)">
    <rect id="background" width="29" height="29" rx="6" transform="translate(3354.5 495.5)" fill="#53d1e2" opacity="0.149"/>
    <path id="Vector" d="M3372.4,508.045c.006.085.006.171.006.256,0,2.6-1.815,5.6-5.132,5.6a4.792,4.792,0,0,1-2.77-.883,3.467,3.467,0,0,0,2.675-.816,1.834,1.834,0,0,1-1.687-1.365,2.076,2.076,0,0,0,.341.03,1.756,1.756,0,0,0,.475-.067,1.933,1.933,0,0,1-1.447-1.931v-.024a1.707,1.707,0,0,0,.815.25,2.018,2.018,0,0,1-.8-1.639,2.091,2.091,0,0,1,.246-.993,5,5,0,0,0,3.719,2.059,2.423,2.423,0,0,1-.045-.451,1.89,1.89,0,0,1,1.8-1.967,1.732,1.732,0,0,1,1.317.621,3.377,3.377,0,0,0,1.145-.475,1.943,1.943,0,0,1-.793,1.084,3.382,3.382,0,0,0,1.038-.3,4.09,4.09,0,0,1-.9,1.017Z" fill="#53d1e2"/>
  </g>
</svg>
