<svg xmlns="http://www.w3.org/2000/svg" width="29" height="29" viewBox="0 0 29 29">
  <g id="Group_23" data-name="Group 23" transform="translate(-3426.5 -495.5)">
    <rect id="background" width="29" height="29" rx="6" transform="translate(3426.5 495.5)" fill="#3ab137" opacity="0.149"/>
    <path id="Vector" d="M3435.5,515.5v0l.773-2.694a5.036,5.036,0,0,1-.727-2.6A5.337,5.337,0,0,1,3441,505a5.548,5.548,0,0,1,3.856,1.526,5.1,5.1,0,0,1,1.647,3.68,5.024,5.024,0,0,1-1.625,3.677,5.689,5.689,0,0,1-6.485.893l-2.888.724Zm3.025-1.664h0l.164.093a4.691,4.691,0,0,0,2.308.6,4.465,4.465,0,0,0,4.582-4.326,4.23,4.23,0,0,0-1.377-3.059,4.606,4.606,0,0,0-3.2-1.267,4.437,4.437,0,0,0-4.532,4.324,4.179,4.179,0,0,0,.692,2.3l.108.164-.456,1.6,1.713-.428Zm3.9-1.126a3.5,3.5,0,0,1-1.316-.351,5.7,5.7,0,0,1-2.3-1.929l-.011-.014-.015-.02-.007-.009a2.409,2.409,0,0,1-.548-1.336,1.408,1.408,0,0,1,.448-1.057l.013-.013.015-.015a.511.511,0,0,1,.364-.161c.089,0,.182,0,.26,0h.031c.079,0,.178,0,.276.222l.118.275.027.064c.117.273.251.583.274.628a.232.232,0,0,1,.013.228,1.587,1.587,0,0,1-.321.425c-.105.1-.158.158-.08.285a3.651,3.651,0,0,0,1.854,1.547.349.349,0,0,0,.147.041.194.194,0,0,0,.147-.075s.326-.358.432-.511a.19.19,0,0,1,.161-.1.446.446,0,0,1,.146.034c.131.043.812.363.931.421l.06.027c.1.047.171.078.2.127a1.039,1.039,0,0,1-.078.619,1.4,1.4,0,0,1-.919.618A2.252,2.252,0,0,1,3442.424,512.71Z" fill="#3ab137"/>
  </g>
</svg>
